<svg xmlns="http://www.w3.org/2000/svg" xmlns:xlink="http://www.w3.org/1999/xlink" preserveAspectRatio="xMidYMid" width="366" height="366" viewBox="0 0 366 366">
  <defs>
    <style>
      .cls-1 {
        fill: #f1edea;
        opacity: 0.3;
        fill-rule: evenodd;
      }
    </style>
  </defs>
  <path d="M265.519,6.702 C261.207,2.402 255.399,-0.000 249.301,-0.000 L116.688,-0.000 C110.621,-0.000 104.793,2.402 100.513,6.702 L6.723,100.513 C2.402,104.793 0.000,110.601 0.000,116.688 L0.000,249.347 C0.000,255.399 2.402,261.230 6.702,265.519 L100.492,359.320 C104.793,363.587 110.601,366.000 116.688,366.000 L249.347,366.000 C255.399,366.000 261.230,363.587 265.519,359.298 L359.298,265.476 C363.587,261.207 366.000,255.399 366.000,249.301 L366.000,116.688 C366.000,110.621 363.587,104.793 359.298,100.513 L265.519,6.702 ZM343.125,249.301 L249.301,343.125 L116.688,343.125 L22.875,249.301 L22.875,116.688 L116.688,22.875 L249.347,22.875 L343.125,116.688 L343.125,249.301 ZM183.000,68.625 C170.378,68.625 160.125,78.878 160.125,91.500 L160.125,205.875 C160.125,218.497 170.378,228.750 183.000,228.750 C195.622,228.750 205.875,218.497 205.875,205.875 L205.875,91.500 C205.875,78.878 195.622,68.625 183.000,68.625 ZM160.125,274.500 C160.125,287.143 170.368,297.375 183.000,297.375 C195.643,297.375 205.875,287.143 205.875,274.500 C205.875,261.857 195.643,251.625 183.000,251.625 C170.368,251.625 160.125,261.857 160.125,274.500 Z" class="cls-1"/>
</svg>
